<svg width="491" height="528" viewBox="0 0 491 528" fill="none" xmlns="http://www.w3.org/2000/svg">
<path d="M135.137 300.755L133.508 297.512L135.137 294.27H138.393L140.021 295.891H146.534L148.162 299.134L144.906 302.376H140.021L138.393 300.755H135.137Z" fill="white"/>
<path d="M402.153 289.406H408.666V294.27L405.41 295.891H402.153L400.525 297.512L397.269 295.891V292.648L402.153 289.406Z" fill="white"/>
<path d="M141.649 281.299L146.534 276.435H148.162L151.418 281.299L154.674 282.921L151.418 289.406H148.162L144.906 287.784L141.649 284.542V281.299Z" fill="white"/>
<path d="M395.641 273.193H400.525V276.435L392.385 284.542L389.128 282.921V279.678L395.641 273.193Z" fill="white"/>
<path d="M462.395 231.039L467.28 227.796H470.536L473.792 229.417L475.42 232.66V240.767L470.536 244.009H467.28L464.023 242.388L460.767 237.524V234.281L462.395 231.039Z" fill="white"/>
<path d="M221.429 182.4L226.313 177.536L236.082 172.672H239.338L240.966 171.05H245.851L252.364 174.293H255.62L263.761 182.4V184.021L267.017 187.263L271.901 196.991L273.53 205.098L275.158 206.719V209.962L276.786 211.583V221.311L278.414 222.932V239.145L280.042 240.767L283.298 239.145V235.903L286.555 231.039V227.796L293.067 214.826L296.324 211.583L297.952 206.719L306.093 198.613V196.991L309.349 193.749H310.977L315.861 188.885H317.49L320.746 185.642L327.259 182.4H332.143L333.771 180.778H341.912L343.54 182.4H348.424L354.937 188.885H356.565L358.193 193.749L361.45 196.991V201.855L364.706 208.34V221.311L366.334 222.932V232.66L364.706 234.281V244.009L363.078 245.63V252.116L361.45 253.737V260.222L358.193 265.086L356.565 273.193L351.681 281.299V284.542L359.822 292.648L361.45 297.512L364.706 300.755L367.962 307.24V310.483L369.59 312.104V318.589L371.219 320.211V339.666L367.962 346.151V349.394L364.706 352.637V355.879L366.334 357.501H369.59L371.219 355.879H376.103L377.731 354.258H382.616L384.244 352.637H392.385L394.013 351.015H400.525L402.153 349.394H408.666L410.294 347.773H420.063L421.691 349.394H424.948L436.345 363.986L441.229 375.335L444.485 378.578V381.82L452.626 398.033V401.276L450.998 402.897H447.742L446.114 404.518H441.229L434.716 407.761H424.948L423.319 409.382L424.948 412.625V443.43L423.319 445.051V479.099L421.691 482.341H413.551L411.922 483.962H407.038L405.41 485.584H397.269L392.385 488.826L377.731 490.448L376.103 492.069H367.962L366.334 493.69H361.45L359.822 495.312L345.168 496.933L343.54 498.554H337.027L335.399 500.175H325.63L324.002 501.797H317.49L315.861 503.418H306.093L301.208 500.175H294.695L293.067 498.554H288.183L286.555 496.933H283.298L281.67 495.312L270.273 493.69L263.761 490.448H260.504L258.876 488.826H255.62L253.992 487.205L242.595 485.584L236.082 482.341H231.198L224.685 479.099H219.801L218.172 477.477H214.916L213.288 475.856H208.403L201.891 472.613H198.635L197.006 470.992L185.609 469.371L175.84 464.507H172.584L170.956 462.885H164.443L159.559 459.643H153.046L151.418 458.021V454.779L149.79 453.158V436.945L148.162 435.323V412.625L146.534 411.004V393.169L148.162 391.548V383.441L149.79 381.82V378.578L144.906 375.335H136.765L135.137 373.714H130.252L123.74 370.471H120.483L118.855 368.85V365.607L128.624 352.637V351.015L133.508 346.151V344.53L146.534 331.56L148.162 328.317H151.418L153.046 326.696H157.931L159.559 325.074H164.443L170.956 321.832H175.84L177.469 320.211H180.725L183.981 321.832L185.609 320.211V315.347L187.237 313.725V310.483L190.494 303.997L198.635 294.27V292.648L210.032 281.299V278.057L208.403 276.435V269.95L205.147 265.086V256.98L203.519 255.358V226.175L205.147 224.553V216.447L208.403 211.583V206.719L211.66 201.855V198.613L214.916 192.127L219.801 187.263L221.429 182.4Z" fill="white"/>
<path d="M314.94 123.219L319.824 119.977H323.081L327.965 124.841V131.326L324.709 134.568H318.196L314.94 131.326V123.219Z" fill="white"/>
<path d="M118.855 521.252L123.74 516.388H125.368L128.624 519.631L130.252 522.874L128.624 526.116L125.368 527.738L120.483 526.116L118.855 521.252Z" fill="white"/>
<path d="M55.3572 456.4H58.6135L61.8699 459.643L63.498 467.749L65.1261 469.371V475.856L66.7543 477.477H76.5232L78.1514 479.098H83.0358L86.2921 480.72V485.584L71.6388 498.554L73.2668 501.797V509.903L74.895 511.525V514.767L73.2668 518.01L68.3824 519.631L60.2417 513.146L55.3572 511.525L52.101 508.282H48.8446L42.332 511.525L39.0757 514.767L30.9349 518.01L27.6787 516.388V505.039L30.9349 498.554V493.69L22.7942 485.584V482.341L19.5378 479.098V475.856L21.166 474.235H26.0505L27.6787 472.613H32.5631L34.1913 474.235H42.332L47.2164 464.507H48.8446L52.101 461.264V459.643L55.3572 456.4Z" fill="white"/>
<path d="M479.383 14.5917H485.896L489.152 17.8344V21.077L490.78 22.6983V32.4261L489.152 34.0474V38.9113L484.268 48.6392L481.011 51.8818V53.5031L467.986 66.4735L461.474 69.7161H458.217L456.589 71.3374H441.936L438.679 69.7161L432.167 79.444V82.6866L433.795 84.3079H438.679L440.308 82.6866H450.077L451.705 84.3079H458.217L459.845 85.9292H463.102L466.358 87.5505L471.242 92.4144V95.657L467.986 100.521H463.102L456.589 103.764H453.333L451.705 105.385H445.192L443.564 107.006H433.795L432.167 105.385H424.026L419.142 102.142H414.257L406.116 110.249L393.091 116.734L391.463 115.113V111.87L401.232 107.006L404.488 103.764V100.521L402.86 98.8997H399.604L396.348 97.2783L384.95 85.9292L381.694 79.444V76.2014L380.066 74.58V69.7161L378.438 66.4735L383.322 59.9883H388.207L389.835 61.6096H393.091L399.604 64.8522L411.001 74.58L412.629 77.8227V81.0653L414.257 82.6866V90.7931L415.885 92.4144H417.514L420.77 89.1718V87.5505L427.282 81.0653L433.795 68.0948L432.167 66.4735H427.282L419.142 58.367L414.257 48.6392V29.1835L415.885 27.5622V22.6983L417.514 21.077V17.8344L422.398 11.3491V9.72781L430.539 1.62131L433.795 0H437.051L441.936 3.24261L443.564 6.4852V9.72781L445.192 11.3491L454.961 6.4852H461.474L464.73 9.72781V11.3491L469.614 17.8344L477.755 16.213L479.383 14.5917Z" fill="white"/>
<path d="M26.0505 383.441L29.3068 380.199L35.8193 383.441V388.305L32.5631 391.548H29.3068L26.0505 388.305V383.441Z" fill="white"/>
<path d="M0 336.424L4.88452 331.56H8.14087L11.3971 333.181L14.6534 336.424V342.909L9.76892 347.773H3.25635L0 344.53V336.424Z" fill="white"/>
<path fill-rule="evenodd" clip-rule="evenodd" d="M252.364 333.181V336.424L253.992 338.045H265.389L267.017 339.666L270.273 338.045V334.802L265.389 329.938H257.248L253.992 333.181H252.364ZM284.927 326.696V331.56H288.183L293.067 334.802H297.952L299.58 336.424L302.836 334.802V329.938L301.208 328.317H297.952L296.324 326.696H289.811L288.183 325.074L284.927 326.696ZM240.966 325.074L239.338 323.453H234.454L232.826 325.074H226.313L223.057 326.696L221.429 329.938L223.057 331.56L237.71 329.938L240.966 326.696V325.074ZM133.508 297.512L135.137 300.755H138.393L140.021 302.376H144.906L148.162 299.134L146.534 295.891H140.021L138.393 294.27H135.137L133.508 297.512ZM408.666 289.406H402.153L397.269 292.648V295.891L400.525 297.512L402.153 295.891H405.41L408.666 294.27V289.406ZM146.534 276.435L141.649 281.299V284.542L144.906 287.784L148.162 289.406H151.418L154.674 282.921L151.418 281.299L148.162 276.435H146.534ZM400.525 273.193H395.641L389.128 279.678V282.921L392.385 284.542L400.525 276.435V273.193ZM467.28 227.796L462.395 231.039L460.767 234.281V237.524L464.023 242.388L467.28 244.009H470.536L475.42 240.767V232.66L473.792 229.417L470.536 227.796H467.28ZM226.313 177.536L221.429 182.4L219.801 187.263L214.916 192.127L211.66 198.613V201.855L208.403 206.719V211.583L205.147 216.447V224.553L203.519 226.175V255.358L205.147 256.98V265.086L208.403 269.95V276.435L210.032 278.057V281.299L198.635 292.648V294.27L190.494 303.997L187.237 310.483V313.725L185.609 315.347V320.211L183.981 321.832L180.725 320.211H177.469L175.84 321.832H170.956L164.443 325.074H159.559L157.931 326.696H153.046L151.418 328.317H148.162L146.534 331.56L133.508 344.53V346.151L128.624 351.015V352.637L118.855 365.607V368.85L120.483 370.471H123.74L130.252 373.714H135.137L136.765 375.335H144.906L149.79 378.578V381.82L148.162 383.441V391.548L146.534 393.169V411.004L148.162 412.625V435.323L149.79 436.945V453.158L151.418 454.779V458.021L153.046 459.643H159.559L164.443 462.885H170.956L172.584 464.507H175.84L185.609 469.371L197.006 470.992L198.635 472.613H201.891L208.403 475.856H213.288L214.916 477.477H218.172L219.801 479.099H224.685L231.198 482.341H236.082L242.595 485.584L253.992 487.205L255.62 488.826H258.876L260.504 490.448H263.761L270.273 493.69L281.67 495.312L283.298 496.933H286.555L288.183 498.554H293.067L294.695 500.175H301.208L306.093 503.418H315.861L317.49 501.797H324.002L325.63 500.175H335.399L337.027 498.554H343.54L345.168 496.933L359.822 495.312L361.45 493.69H366.334L367.962 492.069H376.103L377.731 490.448L392.385 488.826L397.269 485.584H405.41L407.038 483.962H411.922L413.551 482.341H421.691L423.319 479.099V445.051L424.948 443.43V412.625L423.319 409.382L424.948 407.761H434.716L441.229 404.518H446.114L447.742 402.897H450.998L452.626 401.276V398.033L444.485 381.82V378.578L441.229 375.335L436.345 363.986L424.948 349.394H421.691L420.063 347.773H410.294L408.666 349.394H402.153L400.525 351.015H394.013L392.385 352.637H384.244L382.616 354.258H377.731L376.103 355.879H371.219L369.59 357.501H366.334L364.706 355.879V352.637L367.962 349.394V346.151L371.219 339.666V320.211L369.59 318.589V312.104L367.962 310.483V307.24L364.706 300.755L361.45 297.512L359.822 292.648L351.681 284.542V281.299L356.565 273.193L358.193 265.086L361.45 260.222V253.737L363.078 252.116V245.63L364.706 244.009V234.281L366.334 232.66V222.932L364.706 221.311V208.34L361.45 201.855V196.991L358.193 193.749L356.565 188.885H354.937L348.424 182.4H343.54L341.912 180.778H333.771L332.143 182.4H327.259L320.746 185.642L317.49 188.885H315.861L310.977 193.749H309.349L306.093 196.991V198.613L297.952 206.719L296.324 211.583L293.067 214.826L286.555 227.796V231.039L283.298 235.903V239.145L280.042 240.767L278.414 239.145V222.932L276.786 221.311V211.583L275.158 209.962V206.719L273.53 205.098L271.901 196.991L267.017 187.263L263.761 184.021V182.4L255.62 174.293H252.364L245.851 171.05H240.966L239.338 172.672H236.082L226.313 177.536ZM299.58 399.655L302.836 396.412L306.093 398.033V401.276L304.464 402.897H301.208L299.58 399.655ZM309.349 385.063L312.605 383.441L317.49 388.305V389.927L327.259 401.276V402.897L330.515 406.14L333.771 412.625L338.656 417.489V419.11L343.54 423.974V425.595L348.424 428.838H351.681L353.309 427.217H358.193L359.822 425.595H366.334L372.847 422.353H379.359L380.988 420.731H384.244L385.872 419.11H389.128L395.641 415.868H400.525L402.153 414.246H408.666L410.294 412.625H415.179L418.435 411.004L420.063 412.625V432.081L418.435 433.702V461.264L416.807 462.885V477.477L415.179 479.099H410.294L408.666 480.72H398.897L397.269 482.341H390.756L389.128 483.962H382.616L380.988 485.584L366.334 487.205L359.822 490.448L354.937 488.826L353.309 490.448H346.796L345.168 492.069H337.027L335.399 493.69H322.374L320.746 495.312H310.977L309.349 493.69V483.962L307.721 482.341V479.099L309.349 477.477V470.992L307.721 469.371V466.128L309.349 464.507V425.595L310.977 423.974V391.548L309.349 389.927V385.063ZM153.046 381.82L154.674 380.199H157.931L164.443 383.441H170.956L175.84 386.684H180.725L182.353 388.305H185.609L192.122 391.548H197.006L198.635 393.169H201.891L203.519 394.791H208.403L214.916 398.033H219.801L221.429 399.655L232.826 401.276L234.454 402.897H237.71L239.338 404.518H244.223L250.735 407.761H255.62L257.248 409.382H262.132L263.761 411.004H270.273L271.901 412.625H276.786L278.414 414.246H283.298L284.927 415.868H289.811L294.695 411.004L296.324 406.14L299.58 402.897H304.464L306.093 404.518V411.004L304.464 412.625V436.945L302.836 438.566V456.4L301.208 458.021L302.836 459.643V462.885L301.208 464.507V488.826L302.836 492.069L301.208 493.69H296.324L291.439 490.448H288.183L281.67 487.205H273.53L271.901 485.584L260.504 483.962L253.992 480.72H249.107L247.479 479.099H242.595L236.082 475.856H231.198L229.569 474.235L218.172 472.613L216.544 470.992H213.288L206.775 467.749L195.378 466.128L193.75 464.507H190.494L188.866 462.885H183.981L177.469 459.643H169.328L167.7 458.021L159.559 456.4L156.303 449.915V436.945L154.674 435.323V406.14L153.046 404.518V381.82ZM444.485 396.412L441.229 399.655H436.345L434.716 401.276H431.46L424.948 404.518H415.179L413.551 406.14L402.153 407.761L397.269 411.004H390.756L389.128 412.625H385.872L379.359 415.868H374.475L372.847 417.489H367.962L366.334 419.11H361.45L359.822 420.731H354.937L353.309 422.353H350.053L346.796 419.11V417.489L343.54 414.246L340.284 407.761L330.515 396.412V394.791L322.374 386.684V385.063L317.49 380.199L314.233 378.578V376.956L320.746 373.714H330.515L332.143 372.092L343.54 370.471L350.053 367.228L361.45 365.607L367.962 362.364L382.616 360.743L384.244 359.122H389.128L390.756 357.501H395.641L397.269 355.879H405.41L411.922 352.637H420.063L423.319 355.879L428.204 365.607L431.46 368.85L436.345 380.199L439.601 383.441L444.485 393.169V396.412ZM239.338 177.536H247.479L253.992 180.778L257.248 184.021V185.642L260.504 188.885V190.506L263.761 193.749L267.017 200.234V203.477L268.645 205.098V208.34L271.901 214.826V221.311L273.53 222.932V229.417L275.158 231.039V237.524L276.786 239.145V258.601L275.158 260.222L278.414 263.465H281.67L283.298 261.844V258.601L284.927 256.98V248.873L286.555 247.252V244.009L288.183 242.388L289.811 234.281L294.695 227.796V224.553L296.324 221.311L301.208 216.447V213.204L304.464 209.962V208.34L319.118 193.749H320.746L324.002 190.506L330.515 187.263H343.54L351.681 192.127L354.937 198.613L356.565 206.719L358.193 208.34V214.826L359.822 216.447V232.66L358.193 234.281V244.009L356.565 245.63V250.494L354.937 252.116V256.98L353.309 258.601V261.844L351.681 263.465L350.053 271.571L345.168 281.299V286.163L353.309 294.27L363.078 313.725V318.589L364.706 320.211V325.074L366.334 326.696V329.938L364.706 331.56V339.666L363.078 341.288L361.45 349.394L358.193 352.637V354.258L351.681 360.743L348.424 362.364H345.168L343.54 363.986H338.656L337.027 365.607H333.771L332.143 367.228H327.259L325.63 368.85H322.374L320.746 370.471H317.49L312.605 373.714V376.956L309.349 378.578L302.836 385.063V386.684L299.58 389.927L297.952 394.791L294.695 398.033V399.655L291.439 402.897L288.183 409.382H283.298L276.786 406.14H268.645L267.017 404.518H263.761L262.132 402.897H257.248L250.735 399.655H245.851L244.223 398.033H239.338L232.826 394.791H227.941L226.313 393.169L214.916 391.548L208.403 388.305H203.519L201.891 386.684H198.635L197.006 385.063H192.122L185.609 381.82H180.725L174.212 378.578L162.815 376.956L161.187 375.335H157.931L151.418 372.092H146.534L140.021 368.85H135.137L128.624 365.607V360.743L143.277 344.53L144.906 339.666L151.418 333.181H153.046L154.674 336.424H157.931V333.181L162.815 329.938H169.328L170.956 328.317H174.212L175.84 326.696H179.097L182.353 325.074L183.981 326.696L182.353 329.938V338.045L180.725 339.666L177.469 338.045H167.7L169.328 341.288H172.584L174.212 342.909L182.353 344.53L185.609 347.773H188.866L190.494 349.394L193.75 347.773L195.378 349.394H200.263L201.891 351.015H205.147L206.775 352.637H211.66L218.172 355.879H223.057L224.685 357.501H234.454L239.338 360.743H244.223L250.735 363.986H255.62L257.248 365.607H262.132L263.761 367.228H268.645L270.273 368.85H275.158L276.786 370.471H281.67L283.298 372.092H288.183L289.811 373.714L304.464 375.335L302.836 372.092L299.58 370.471H296.324L294.695 368.85H289.811L283.298 365.607L271.901 363.986L270.273 362.364H267.017L265.389 360.743H260.504L253.992 357.501H247.479L245.851 355.879H240.966L239.338 354.258H232.826L227.941 351.015H223.057L221.429 349.394H213.288L211.66 347.773H208.403L201.891 344.53H197.006L195.378 342.909H192.122L188.866 339.666V320.211L193.75 312.104V308.861L200.263 300.755V297.512L201.891 294.27L205.147 292.648L214.916 282.921H216.544V274.814L214.916 273.193V268.329L213.288 266.707V261.844L211.66 260.222V252.116L210.032 250.494V227.796L211.66 226.175L213.288 211.583L216.544 206.719L218.172 198.613L224.685 190.506L226.313 185.642L234.454 179.157H237.71L239.338 177.536ZM319.824 119.977L314.94 123.219V131.326L318.196 134.568H324.709L327.965 131.326V124.841L323.081 119.977H319.824ZM123.74 516.388L118.855 521.252L120.483 526.116L125.368 527.738L128.624 526.116L130.252 522.874L128.624 519.631L125.368 516.388H123.74ZM58.6135 456.4H55.3572L52.101 459.643V461.264L48.8446 464.507H47.2164L42.332 474.235H34.1913L32.5631 472.613H27.6787L26.0505 474.235H21.166L19.5378 475.856V479.098L22.7942 482.341V485.584L30.9349 493.69V498.554L27.6787 505.039V516.388L30.9349 518.01L39.0757 514.767L42.332 511.525L48.8446 508.282H52.101L55.3572 511.525L60.2417 513.146L68.3824 519.631L73.2668 518.01L74.895 514.767V511.525L73.2668 509.903V501.797L71.6388 498.554L86.2921 485.584V480.72L83.0358 479.098H78.1514L76.5232 477.477H66.7543L65.1261 475.856V469.371L63.498 467.749L61.8699 459.643L58.6135 456.4ZM56.9854 464.507L58.6135 466.128V470.992L60.2417 472.613V479.098L61.8699 482.341H70.0106L74.895 485.584V487.205L71.6388 490.448L65.1261 493.69V496.933L66.7543 498.554V503.418L68.3824 505.039V509.903L65.1261 511.525L52.101 501.797L47.2164 503.418L43.9602 506.661L37.4475 509.903H34.1913L32.5631 506.661L35.8195 501.797V498.554L37.4475 496.933V492.069L27.6787 482.341V479.098L29.3068 477.477H34.1913L35.8195 479.098H45.5884L48.8446 472.613L52.101 469.371V467.749L55.3572 464.507H56.9854ZM485.896 14.5917H479.383L477.755 16.213L469.614 17.8344L464.73 11.3491V9.72781L461.474 6.4852H454.961L445.192 11.3491L443.564 9.72781V6.4852L441.936 3.24261L437.051 0H433.795L430.539 1.62131L422.398 9.72781V11.3491L417.514 17.8344V21.077L415.885 22.6983V27.5622L414.257 29.1835V48.6392L419.142 58.367L427.282 66.4735H432.167L433.795 68.0948L427.282 81.0653L420.77 87.5505V89.1718L417.514 92.4144H415.885L414.257 90.7931V82.6866L412.629 81.0653V77.8227L411.001 74.58L399.604 64.8522L393.091 61.6096H389.835L388.207 59.9883H383.322L378.438 66.4735L380.066 69.7161V74.58L381.694 76.2014V79.444L384.95 85.9292L396.348 97.2783L399.604 98.8997H402.86L404.488 100.521V103.764L401.232 107.006L391.463 111.87V115.113L393.091 116.734L406.116 110.249L414.257 102.142H419.142L424.026 105.385H432.167L433.795 107.006H443.564L445.192 105.385H451.705L453.333 103.764H456.589L463.102 100.521H467.986L471.242 95.657V92.4144L466.358 87.5505L463.102 85.9292H459.845L458.217 84.3079H451.705L450.077 82.6866H440.308L438.679 84.3079H433.795L432.167 82.6866V79.444L438.679 69.7161L441.936 71.3374H456.589L458.217 69.7161H461.474L467.986 66.4735L481.011 53.5031V51.8818L484.268 48.6392L489.152 38.9113V34.0474L490.78 32.4261V22.6983L489.152 21.077V17.8344L485.896 14.5917ZM420.77 97.2783V95.657L424.026 92.4144H430.539L437.051 89.1718H454.961L461.474 92.4144V95.657L459.845 97.2783H456.589L450.077 100.521H427.282L420.77 97.2783ZM386.579 66.4735H389.835L396.348 69.7161L406.116 77.8227L411.001 87.5505V92.4144L412.629 94.0357L411.001 97.2783L407.745 95.657H404.488L391.463 84.3079L384.95 71.3374V68.0948L386.579 66.4735ZM433.795 6.4852H435.423L438.679 9.72781V12.9704L440.308 14.5917V21.077L441.936 22.6983H445.192L446.82 19.4557L453.333 12.9704L461.474 9.72781L463.102 11.3491V27.5622L464.73 29.1835H466.358L472.871 22.6983L476.127 21.077H481.011L484.268 25.9409V29.1835L482.64 30.8048V37.29L481.011 38.9113V42.1539L477.755 48.6392L464.73 61.6096L458.217 64.8522H454.961L453.333 66.4735H438.679L437.051 64.8522H433.795L424.026 55.1244L420.77 48.6392V42.1539L419.142 40.5326V37.29L420.77 35.6687V27.5622L425.654 17.8344V14.5917L433.795 6.4852ZM29.3068 380.199L26.0505 383.441V388.305L29.3068 391.548H32.5631L35.8193 388.305V383.441L29.3068 380.199ZM4.88452 331.56L0 336.424V344.53L3.25635 347.773H9.76892L14.6534 342.909V336.424L11.3971 333.181L8.14087 331.56H4.88452ZM4.88452 339.666L8.14087 338.045L9.76892 341.288L6.5127 342.909L4.88452 339.666Z" fill="black"/>
</svg>
